# xmcd
#
# Track frame offsets:
#  150
#  9071
#  21265
#  29314
#  37815
#  46226
#  54610
#  63223
#  73599
#  82847
#  92673
#  101886
#  113614
#  121690
#  131404
#  139913
#  152601
#  162252
#  169646
#  177855
#
# Disc length: 2496 seconds
#
# Revision: 0
# Processed by: cddbd v1.5.1PL0 Copyright (c) Steve Scherf et al.
# Submitted via: Collectorz.com Music Collector 6.9
#
DISCID=ed09be14
DTITLE=Arthur "Guitar Boogie" Smith and Others - 20 All-Time Hits
DYEAR=1900
DGENRE=Country
TTITLE0=Arthur Smith - Bonapart's Retreat
TTITLE1=Arthur Smith - Philadelphia
TTITLE2=Arthur Smith - Rubber Dolly
TTITLE3=Arthur Smith - Sugarfoot Guitar
TTITLE4=Arthur Smith - Run Around
TTITLE5=Arthur Smith - Guitar Hop
TTITLE6=Arthur Smith - Maggie Boogie Battle
TTITLE7=Arthur Smith - Blues On Guitar
TTITLE8=Arthur Smith - Going Home
TTITLE9=Joe Maphis - Fiddlin' On The Guitar
TTITLE10=Clen Campbell - The Judge and Jury
TTITLE11=Jackie Phelps - Catfish and Hushpuppies
TTITLE12=Shot Jackson - Hound Dog Ramble
TTITLE13="Thumbs" Carlisle - "Thumbs" Guitar Boogie
TTITLE14=Pete Drake - Invitation To The Blues
TTITLE15=Tommy Hill - String Boogie Woogie
TTITLE16=Little Roy Wiggins - Rise And Shine
TTITLE17=Leon McAuliffe - Columbus Stockade
TTITLE18=Phil Baugh - Country Guitar
TTITLE19=Various Artist - Medley
EXTD=
EXTT0=
EXTT1=
EXTT2=
EXTT3=
EXTT4=
EXTT5=
EXTT6=
EXTT7=
EXTT8=
EXTT9=
EXTT10=
EXTT11=
EXTT12=
EXTT13=
EXTT14=
EXTT15=
EXTT16=
EXTT17=
EXTT18=
EXTT19=
PLAYORDER=
